<mxfile host="Electron" modified="2025-05-02T01:04:48.878Z" agent="Mozilla/5.0 (Windows NT 10.0; Win64; x64) AppleWebKit/537.36 (KHTML, like Gecko) draw.io/22.0.3 Chrome/114.0.5735.289 Electron/25.8.4 Safari/537.36" etag="sQutMphWS1refRiLLh_0" version="22.0.3" type="device">
  <diagram name="Page-1" id="cXtHpZz1KZqrfgvmPIi9">
    <mxGraphModel dx="955" dy="557" grid="1" gridSize="10" guides="1" tooltips="1" connect="1" arrows="1" fold="1" page="1" pageScale="1" pageWidth="850" pageHeight="1100" math="0" shadow="0">
      <root>
        <mxCell id="0" />
        <mxCell id="1" parent="0" />
        <mxCell id="K4t1xtYYmBP7zxjsqk58-1" value="GeometricObject" style="swimlane;fontStyle=1;align=center;verticalAlign=top;childLayout=stackLayout;horizontal=1;startSize=26;horizontalStack=0;resizeParent=1;resizeParentMax=0;resizeLast=0;collapsible=1;marginBottom=0;whiteSpace=wrap;html=1;" parent="1" vertex="1">
          <mxGeometry x="370" y="290" width="290" height="310" as="geometry" />
        </mxCell>
        <mxCell id="K4t1xtYYmBP7zxjsqk58-2" value="- color: String" style="text;strokeColor=none;fillColor=none;align=left;verticalAlign=top;spacingLeft=4;spacingRight=4;overflow=hidden;rotatable=0;points=[[0,0.5],[1,0.5]];portConstraint=eastwest;whiteSpace=wrap;html=1;" parent="K4t1xtYYmBP7zxjsqk58-1" vertex="1">
          <mxGeometry y="26" width="290" height="26" as="geometry" />
        </mxCell>
        <mxCell id="K4t1xtYYmBP7zxjsqk58-5" value="- filled: boolean" style="text;strokeColor=none;fillColor=none;align=left;verticalAlign=top;spacingLeft=4;spacingRight=4;overflow=hidden;rotatable=0;points=[[0,0.5],[1,0.5]];portConstraint=eastwest;whiteSpace=wrap;html=1;" parent="K4t1xtYYmBP7zxjsqk58-1" vertex="1">
          <mxGeometry y="52" width="290" height="26" as="geometry" />
        </mxCell>
        <mxCell id="K4t1xtYYmBP7zxjsqk58-6" value="- dateCreated =&amp;nbsp; java.util.Date" style="text;strokeColor=none;fillColor=none;align=left;verticalAlign=top;spacingLeft=4;spacingRight=4;overflow=hidden;rotatable=0;points=[[0,0.5],[1,0.5]];portConstraint=eastwest;whiteSpace=wrap;html=1;" parent="K4t1xtYYmBP7zxjsqk58-1" vertex="1">
          <mxGeometry y="78" width="290" height="26" as="geometry" />
        </mxCell>
        <mxCell id="K4t1xtYYmBP7zxjsqk58-3" value="" style="line;strokeWidth=1;fillColor=none;align=left;verticalAlign=middle;spacingTop=-1;spacingLeft=3;spacingRight=3;rotatable=0;labelPosition=right;points=[];portConstraint=eastwest;strokeColor=inherit;" parent="K4t1xtYYmBP7zxjsqk58-1" vertex="1">
          <mxGeometry y="104" width="290" height="8" as="geometry" />
        </mxCell>
        <mxCell id="K4t1xtYYmBP7zxjsqk58-4" value="+ GeometricObject()" style="text;strokeColor=none;fillColor=none;align=left;verticalAlign=top;spacingLeft=4;spacingRight=4;overflow=hidden;rotatable=0;points=[[0,0.5],[1,0.5]];portConstraint=eastwest;whiteSpace=wrap;html=1;" parent="K4t1xtYYmBP7zxjsqk58-1" vertex="1">
          <mxGeometry y="112" width="290" height="26" as="geometry" />
        </mxCell>
        <mxCell id="K4t1xtYYmBP7zxjsqk58-7" value="+ GeometricObject(color: String, filled: boolean, dateCreated: java.util.date)" style="text;strokeColor=none;fillColor=none;align=left;verticalAlign=top;spacingLeft=4;spacingRight=4;overflow=hidden;rotatable=0;points=[[0,0.5],[1,0.5]];portConstraint=eastwest;whiteSpace=wrap;html=1;" parent="K4t1xtYYmBP7zxjsqk58-1" vertex="1">
          <mxGeometry y="138" width="290" height="42" as="geometry" />
        </mxCell>
        <mxCell id="K4t1xtYYmBP7zxjsqk58-8" value="+ getColor(): String" style="text;strokeColor=none;fillColor=none;align=left;verticalAlign=top;spacingLeft=4;spacingRight=4;overflow=hidden;rotatable=0;points=[[0,0.5],[1,0.5]];portConstraint=eastwest;whiteSpace=wrap;html=1;" parent="K4t1xtYYmBP7zxjsqk58-1" vertex="1">
          <mxGeometry y="180" width="290" height="26" as="geometry" />
        </mxCell>
        <mxCell id="K4t1xtYYmBP7zxjsqk58-9" value="+ setColor(): void" style="text;strokeColor=none;fillColor=none;align=left;verticalAlign=top;spacingLeft=4;spacingRight=4;overflow=hidden;rotatable=0;points=[[0,0.5],[1,0.5]];portConstraint=eastwest;whiteSpace=wrap;html=1;" parent="K4t1xtYYmBP7zxjsqk58-1" vertex="1">
          <mxGeometry y="206" width="290" height="26" as="geometry" />
        </mxCell>
        <mxCell id="vZ1ndSbymLbPQOX6WzdK-1" value="+ isFilled(): boolean" style="text;strokeColor=none;fillColor=none;align=left;verticalAlign=top;spacingLeft=4;spacingRight=4;overflow=hidden;rotatable=0;points=[[0,0.5],[1,0.5]];portConstraint=eastwest;whiteSpace=wrap;html=1;" vertex="1" parent="K4t1xtYYmBP7zxjsqk58-1">
          <mxGeometry y="232" width="290" height="26" as="geometry" />
        </mxCell>
        <mxCell id="vZ1ndSbymLbPQOX6WzdK-2" value="+ setFilled(): void" style="text;strokeColor=none;fillColor=none;align=left;verticalAlign=top;spacingLeft=4;spacingRight=4;overflow=hidden;rotatable=0;points=[[0,0.5],[1,0.5]];portConstraint=eastwest;whiteSpace=wrap;html=1;" vertex="1" parent="K4t1xtYYmBP7zxjsqk58-1">
          <mxGeometry y="258" width="290" height="26" as="geometry" />
        </mxCell>
        <mxCell id="vZ1ndSbymLbPQOX6WzdK-3" value="+ getDateCreated(): Date" style="text;strokeColor=none;fillColor=none;align=left;verticalAlign=top;spacingLeft=4;spacingRight=4;overflow=hidden;rotatable=0;points=[[0,0.5],[1,0.5]];portConstraint=eastwest;whiteSpace=wrap;html=1;" vertex="1" parent="K4t1xtYYmBP7zxjsqk58-1">
          <mxGeometry y="284" width="290" height="26" as="geometry" />
        </mxCell>
        <mxCell id="vZ1ndSbymLbPQOX6WzdK-4" value="Triangle" style="swimlane;fontStyle=1;align=center;verticalAlign=top;childLayout=stackLayout;horizontal=1;startSize=26;horizontalStack=0;resizeParent=1;resizeParentMax=0;resizeLast=0;collapsible=1;marginBottom=0;whiteSpace=wrap;html=1;" vertex="1" parent="1">
          <mxGeometry x="120" y="277" width="190" height="336" as="geometry" />
        </mxCell>
        <mxCell id="vZ1ndSbymLbPQOX6WzdK-5" value="+ side1: double" style="text;strokeColor=none;fillColor=none;align=left;verticalAlign=top;spacingLeft=4;spacingRight=4;overflow=hidden;rotatable=0;points=[[0,0.5],[1,0.5]];portConstraint=eastwest;whiteSpace=wrap;html=1;" vertex="1" parent="vZ1ndSbymLbPQOX6WzdK-4">
          <mxGeometry y="26" width="190" height="26" as="geometry" />
        </mxCell>
        <mxCell id="vZ1ndSbymLbPQOX6WzdK-12" value="+ side2: double" style="text;strokeColor=none;fillColor=none;align=left;verticalAlign=top;spacingLeft=4;spacingRight=4;overflow=hidden;rotatable=0;points=[[0,0.5],[1,0.5]];portConstraint=eastwest;whiteSpace=wrap;html=1;" vertex="1" parent="vZ1ndSbymLbPQOX6WzdK-4">
          <mxGeometry y="52" width="190" height="26" as="geometry" />
        </mxCell>
        <mxCell id="vZ1ndSbymLbPQOX6WzdK-13" value="+ side3: double" style="text;strokeColor=none;fillColor=none;align=left;verticalAlign=top;spacingLeft=4;spacingRight=4;overflow=hidden;rotatable=0;points=[[0,0.5],[1,0.5]];portConstraint=eastwest;whiteSpace=wrap;html=1;" vertex="1" parent="vZ1ndSbymLbPQOX6WzdK-4">
          <mxGeometry y="78" width="190" height="26" as="geometry" />
        </mxCell>
        <mxCell id="vZ1ndSbymLbPQOX6WzdK-6" value="" style="line;strokeWidth=1;fillColor=none;align=left;verticalAlign=middle;spacingTop=-1;spacingLeft=3;spacingRight=3;rotatable=0;labelPosition=right;points=[];portConstraint=eastwest;strokeColor=inherit;" vertex="1" parent="vZ1ndSbymLbPQOX6WzdK-4">
          <mxGeometry y="104" width="190" height="8" as="geometry" />
        </mxCell>
        <mxCell id="vZ1ndSbymLbPQOX6WzdK-7" value="+ Triangle()" style="text;strokeColor=none;fillColor=none;align=left;verticalAlign=top;spacingLeft=4;spacingRight=4;overflow=hidden;rotatable=0;points=[[0,0.5],[1,0.5]];portConstraint=eastwest;whiteSpace=wrap;html=1;" vertex="1" parent="vZ1ndSbymLbPQOX6WzdK-4">
          <mxGeometry y="112" width="190" height="26" as="geometry" />
        </mxCell>
        <mxCell id="vZ1ndSbymLbPQOX6WzdK-14" value="+ Triangle(double side1, double side2, double side3)" style="text;strokeColor=none;fillColor=none;align=left;verticalAlign=top;spacingLeft=4;spacingRight=4;overflow=hidden;rotatable=0;points=[[0,0.5],[1,0.5]];portConstraint=eastwest;whiteSpace=wrap;html=1;" vertex="1" parent="vZ1ndSbymLbPQOX6WzdK-4">
          <mxGeometry y="138" width="190" height="42" as="geometry" />
        </mxCell>
        <mxCell id="vZ1ndSbymLbPQOX6WzdK-15" value="+ side1(): double" style="text;strokeColor=none;fillColor=none;align=left;verticalAlign=top;spacingLeft=4;spacingRight=4;overflow=hidden;rotatable=0;points=[[0,0.5],[1,0.5]];portConstraint=eastwest;whiteSpace=wrap;html=1;" vertex="1" parent="vZ1ndSbymLbPQOX6WzdK-4">
          <mxGeometry y="180" width="190" height="26" as="geometry" />
        </mxCell>
        <mxCell id="vZ1ndSbymLbPQOX6WzdK-16" value="+ side2(): double" style="text;strokeColor=none;fillColor=none;align=left;verticalAlign=top;spacingLeft=4;spacingRight=4;overflow=hidden;rotatable=0;points=[[0,0.5],[1,0.5]];portConstraint=eastwest;whiteSpace=wrap;html=1;" vertex="1" parent="vZ1ndSbymLbPQOX6WzdK-4">
          <mxGeometry y="206" width="190" height="26" as="geometry" />
        </mxCell>
        <mxCell id="vZ1ndSbymLbPQOX6WzdK-17" value="+ side3(): double" style="text;strokeColor=none;fillColor=none;align=left;verticalAlign=top;spacingLeft=4;spacingRight=4;overflow=hidden;rotatable=0;points=[[0,0.5],[1,0.5]];portConstraint=eastwest;whiteSpace=wrap;html=1;" vertex="1" parent="vZ1ndSbymLbPQOX6WzdK-4">
          <mxGeometry y="232" width="190" height="26" as="geometry" />
        </mxCell>
        <mxCell id="vZ1ndSbymLbPQOX6WzdK-18" value="+ getArea(): double" style="text;strokeColor=none;fillColor=none;align=left;verticalAlign=top;spacingLeft=4;spacingRight=4;overflow=hidden;rotatable=0;points=[[0,0.5],[1,0.5]];portConstraint=eastwest;whiteSpace=wrap;html=1;" vertex="1" parent="vZ1ndSbymLbPQOX6WzdK-4">
          <mxGeometry y="258" width="190" height="26" as="geometry" />
        </mxCell>
        <mxCell id="vZ1ndSbymLbPQOX6WzdK-19" value="+ getPerimeter(): double" style="text;strokeColor=none;fillColor=none;align=left;verticalAlign=top;spacingLeft=4;spacingRight=4;overflow=hidden;rotatable=0;points=[[0,0.5],[1,0.5]];portConstraint=eastwest;whiteSpace=wrap;html=1;" vertex="1" parent="vZ1ndSbymLbPQOX6WzdK-4">
          <mxGeometry y="284" width="190" height="26" as="geometry" />
        </mxCell>
        <mxCell id="vZ1ndSbymLbPQOX6WzdK-20" value="+ toString(): String" style="text;strokeColor=none;fillColor=none;align=left;verticalAlign=top;spacingLeft=4;spacingRight=4;overflow=hidden;rotatable=0;points=[[0,0.5],[1,0.5]];portConstraint=eastwest;whiteSpace=wrap;html=1;" vertex="1" parent="vZ1ndSbymLbPQOX6WzdK-4">
          <mxGeometry y="310" width="190" height="26" as="geometry" />
        </mxCell>
        <mxCell id="vZ1ndSbymLbPQOX6WzdK-29" value="" style="edgeStyle=orthogonalEdgeStyle;rounded=0;orthogonalLoop=1;jettySize=auto;html=1;" edge="1" parent="1" source="K4t1xtYYmBP7zxjsqk58-7" target="vZ1ndSbymLbPQOX6WzdK-16">
          <mxGeometry relative="1" as="geometry" />
        </mxCell>
      </root>
    </mxGraphModel>
  </diagram>
</mxfile>
